<?xml version="1.0" encoding="UTF-8" standalone="no"?>
<!DOCTYPE svg PUBLIC "-//W3C//DTD SVG 1.1//EN" "http://www.w3.org/Graphics/SVG/1.1/DTD/svg11.dtd">
<svg width="100%" height="100%" viewBox="0 0 239 228" version="1.1" xmlns="http://www.w3.org/2000/svg" xmlns:xlink="http://www.w3.org/1999/xlink" xml:space="preserve" xmlns:serif="http://www.serif.com/" style="fill-rule:evenodd;clip-rule:evenodd;stroke-linejoin:round;stroke-miterlimit:2;">
    <g transform="matrix(1,0,0,1,-2248.948423,-953.762403)">
        <g transform="matrix(1,0,0,1,0,-380)">
            <g transform="matrix(10.85,0,0,10.85,2238.098423,1322.910275)">
                <path d="M11,20.928C9.086,20.649 7.412,19.583 6.322,18.073C4.991,18.385 3.998,19.589 4,20.999C4.001,21.551 3.553,21.999 3.001,22C2.449,22.001 2.001,21.553 2,21.001C1.998,18.828 3.413,16.947 5.381,16.267C5.134,15.554 5,14.792 5,14L2,14C1.448,14 1,13.552 1,13C1,12.448 1.448,12 2,12L5,12L5,11C5,10.534 5.065,10.083 5.186,9.654C3.314,8.92 2.002,7.09 2,5.001C1.999,4.449 2.447,4.001 2.999,4C3.551,3.999 3.999,4.447 4,4.999C4.002,6.328 4.886,7.482 6.119,7.863C6.62,7.245 7.265,6.747 8,6.422L8,6C8,5.262 8.204,4.569 8.558,3.973L7.293,2.707C6.903,2.317 6.903,1.683 7.293,1.293C7.683,0.903 8.317,0.903 8.707,1.293L9.973,2.558C10.569,2.204 11.262,2 12,2C12.738,2 13.431,2.204 14.027,2.558L15.293,1.293C15.683,0.903 16.317,0.903 16.707,1.293C17.097,1.683 17.097,2.317 16.707,2.707L15.442,3.973C15.796,4.569 16,5.262 16,6L16,6.422C16.735,6.747 17.38,7.245 17.881,7.863C19.114,7.482 19.998,6.328 20,4.999C20.001,4.447 20.449,3.999 21.001,4C21.553,4.001 22.001,4.449 22,5.001C21.998,7.09 20.686,8.92 18.814,9.654C18.935,10.083 19,10.534 19,11L19,12L22,12C22.552,12 23,12.448 23,13C23,13.552 22.552,14 22,14L19,14C19,14.792 18.866,15.554 18.619,16.267C20.587,16.947 22.002,18.828 22,21.001C21.999,21.553 21.551,22.001 20.999,22C20.447,21.999 19.999,21.551 20,20.999C20.002,19.589 19.009,18.385 17.678,18.073C16.588,19.583 14.914,20.649 13,20.928L13,11C13,10.448 12.552,10 12,10C11.448,10 11,10.448 11,11L11,20.928ZM14,6C14,4.903 13.097,4 12,4C10.903,4 10,4.903 10,6L14,6Z"/>
            </g>
        </g>
    </g>
</svg>
