<?xml version="1.0" encoding="UTF-8" standalone="no"?>
<!DOCTYPE svg PUBLIC "-//W3C//DTD SVG 1.1//EN" "http://www.w3.org/Graphics/SVG/1.1/DTD/svg11.dtd">
<svg width="100%" height="100%" viewBox="0 0 20 21" version="1.1" xmlns="http://www.w3.org/2000/svg" xmlns:xlink="http://www.w3.org/1999/xlink" xml:space="preserve" xmlns:serif="http://www.serif.com/" style="fill-rule:evenodd;clip-rule:evenodd;stroke-linejoin:round;stroke-miterlimit:2;">
    <g transform="matrix(1,0,0,1,-2.25,-1.25)">
        <path d="M2.25,19L2.25,6C2.25,4.481 3.481,3.25 5,3.25L6.25,3.25L6.25,2C6.25,1.586 6.586,1.25 7,1.25C7.414,1.25 7.75,1.586 7.75,2L7.75,6C7.75,6.414 7.414,6.75 7,6.75C6.586,6.75 6.25,6.414 6.25,6L6.25,4.75L5,4.75C4.31,4.75 3.75,5.31 3.75,6L3.75,9.25L20.25,9.25L20.25,6C20.25,5.31 19.69,4.75 19,4.75L18.5,4.75C18.086,4.75 17.75,4.414 17.75,4C17.75,3.586 18.086,3.25 18.5,3.25L19.25,3.261C20.652,3.388 21.75,4.565 21.75,6L21.75,19C21.75,20.519 20.519,21.75 19,21.75L5,21.75C3.481,21.75 2.25,20.519 2.25,19ZM3.75,10.75L3.75,19C3.75,19.69 4.31,20.25 5,20.25L19,20.25C19.69,20.25 20.25,19.69 20.25,19L20.25,10.75L3.75,10.75ZM14.25,3.25L14.25,2C14.25,1.586 14.586,1.25 15,1.25C15.414,1.25 15.75,1.586 15.75,2L15.75,6C15.75,6.414 15.414,6.75 15,6.75C14.586,6.75 14.25,6.414 14.25,6L14.25,4.75L10.5,4.75C10.086,4.75 9.75,4.414 9.75,4C9.75,3.586 10.086,3.25 10.5,3.25L14.25,3.25Z"/>
    </g>
</svg>
