<?xml version="1.0" encoding="UTF-8" standalone="no"?>
<!DOCTYPE svg PUBLIC "-//W3C//DTD SVG 1.1//EN" "http://www.w3.org/Graphics/SVG/1.1/DTD/svg11.dtd">
<svg width="100%" height="100%" viewBox="0 0 22 18" version="1.1" xmlns="http://www.w3.org/2000/svg" xmlns:xlink="http://www.w3.org/1999/xlink" xml:space="preserve" xmlns:serif="http://www.serif.com/" style="fill-rule:evenodd;clip-rule:evenodd;stroke-linejoin:round;stroke-miterlimit:2;">
    <g transform="matrix(1,0,0,1,-1.25,-3.25)">
        <path d="M19.444,15.604L19.388,15.672L18.53,16.53C18.238,16.823 17.762,16.823 17.47,16.53C17.177,16.238 17.177,15.762 17.47,15.47L18.067,14.872L17.966,14.822L18.09,14.85L18.091,14.848L17.954,14.816C17.473,14.575 16.891,14.669 16.511,15.05L15.616,15.945C15.382,16.179 15.25,16.497 15.25,16.828L15.25,20C15.25,20.414 14.914,20.75 14.5,20.75C14.086,20.75 13.75,20.414 13.75,20L13.75,16.828C13.75,16.099 14.04,15.4 14.555,14.884L15.45,13.989C16.191,13.249 17.277,13.001 18.25,13.32L18.25,10.5C18.25,9.257 19.257,8.25 20.5,8.25C21.743,8.25 22.75,9.257 22.75,10.5L22.75,15.752L22.724,16.016L22.647,16.268L22.523,16.5L22.355,16.706L18.53,20.53C18.238,20.823 17.762,20.823 17.47,20.53C17.177,20.238 17.177,19.762 17.47,19.47L21.25,15.689L21.25,10.5C21.25,10.086 20.914,9.75 20.5,9.75C20.086,9.75 19.75,10.086 19.75,10.5L19.75,15C19.75,15.248 19.63,15.468 19.444,15.604ZM4.25,15L4.25,10.5C4.25,10.086 3.914,9.75 3.5,9.75C3.086,9.75 2.75,10.086 2.75,10.5L2.75,15.689L6.53,19.47C6.823,19.762 6.823,20.238 6.53,20.53C6.238,20.823 5.762,20.823 5.47,20.53L1.645,16.706L1.477,16.5L1.353,16.268L1.276,16.016L1.25,15.752L1.25,10.5C1.25,9.257 2.257,8.25 3.5,8.25C4.743,8.25 5.75,9.257 5.75,10.5L5.75,13.32C6.724,13.001 7.809,13.249 8.55,13.989L9.445,14.884C9.96,15.4 10.25,16.099 10.25,16.828L10.25,20C10.25,20.414 9.914,20.75 9.5,20.75C9.086,20.75 8.75,20.414 8.75,20L8.75,16.828C8.75,16.497 8.618,16.179 8.384,15.945L7.489,15.05C7.109,14.669 6.527,14.575 6.046,14.816L6.034,14.822L5.933,14.872L6.53,15.47C6.823,15.762 6.823,16.238 6.53,16.53C6.238,16.823 5.762,16.823 5.47,16.53L4.611,15.672L4.556,15.604C4.37,15.468 4.25,15.248 4.25,15ZM12,3.788C12.502,3.44 13.102,3.25 13.722,3.25C14.53,3.25 15.303,3.573 15.871,4.145C16.434,4.713 16.75,5.481 16.75,6.28C16.75,7.079 16.434,7.847 15.871,8.414C14.888,9.405 13.934,10.437 12.915,11.392L12.911,11.395L12.698,11.555L12.465,11.668L12.22,11.732L11.971,11.75L11.723,11.721L11.481,11.647L11.253,11.524L11.047,11.355L8.129,8.414C6.957,7.233 6.957,5.326 8.129,4.145C9.18,3.086 10.817,2.967 12,3.788Z"/>
    </g>
</svg>
