<?xml version="1.0" encoding="UTF-8" standalone="no"?>
<!DOCTYPE svg PUBLIC "-//W3C//DTD SVG 1.1//EN" "http://www.w3.org/Graphics/SVG/1.1/DTD/svg11.dtd">
<svg width="100%" height="100%" viewBox="0 0 22 22" version="1.1" xmlns="http://www.w3.org/2000/svg" xmlns:xlink="http://www.w3.org/1999/xlink" xml:space="preserve" xmlns:serif="http://www.serif.com/" style="fill-rule:evenodd;clip-rule:evenodd;stroke-linejoin:round;stroke-miterlimit:2;">
    <g transform="matrix(1,0,0,1,-1.25,-1.25)">
        <path d="M12,1.25C6.063,1.25 1.25,6.063 1.25,12C1.25,17.937 6.063,22.75 12,22.75C17.937,22.75 22.75,17.937 22.75,12C22.75,6.063 17.937,1.25 12,1.25ZM12,9.75C11.31,9.75 10.75,9.19 10.75,8.5C10.75,7.81 11.31,7.25 12,7.25C12.69,7.25 13.25,7.81 13.25,8.5C13.25,9.19 12.69,9.75 12,9.75ZM12.75,11.75L12.75,16C12.75,16.414 12.414,16.75 12,16.75C11.586,16.75 11.25,16.414 11.25,16L11.25,11.75C11.25,11.336 11.586,11 12,11C12.414,11 12.75,11.336 12.75,11.75Z"/>
    </g>
</svg>
